{
  "accessors": [
    {
      "bufferView": 2,
      "componentType": 5126,
      "count": 65532,
      "max": [
        24.57769012451172,
        -0.016510009765625,
        15.511747360229492
      ],
      "min": [
        -21.51414680480957,
        -23.60844612121582,
        -12.165736198425293
      ],
      "type": "VEC3"
    },
    {
      "bufferView": 2,
      "byteOffset": 786384,
      "componentType": 5126,
      "count": 65532,
      "max": [
        0.9999950528144836,
        0.9999986290931702,
        0.9999990463256836
      ],
      "min": [
        -0.9999973177909851,
        -0.9999938011169434,
        -0.9999999403953552
      ],
      "type": "VEC3"
    },
    {
      "bufferView": 1,
      "componentType": 5126,
      "count": 65532,
      "max": [
        0.999738872051239,
        0.9997557401657104
      ],
      "min": [
        0.000244140625,
        0.0002539945999160409
      ],
      "type": "VEC2"
    },
    {
      "bufferView": 0,
      "componentType": 5125,
      "count": 279126,
      "type": "SCALAR"
    },
    {
      "bufferView": 2,
      "byteOffset": 1572768,
      "componentType": 5126,
      "count": 7228,
      "max": [
        8.743680953979492,
        0.0787506103515625,
        15.511747360229492
      ],
      "min": [
        -8.75126838684082,
        -22.534448623657227,
        -7.444393157958984
      ],
      "type": "VEC3"
    },
    {
      "bufferView": 2,
      "byteOffset": 1659504,
      "componentType": 5126,
      "count": 7228,
      "max": [
        0.9950430989265442,
        0.9999785423278809,
        0.9999240636825562
      ],
      "min": [
        -0.9994403719902039,
        -0.9997318387031555,
        -0.9993050694465637
      ],
      "type": "VEC3"
    },
    {
      "bufferView": 1,
      "byteOffset": 524256,
      "componentType": 5126,
      "count": 7228,
      "max": [
        0.9996655583381653,
        0.9968260526657104
      ],
      "min": [
        0.000244140625,
        0.00024404062423855066
      ],
      "type": "VEC2"
    },
    {
      "bufferView": 0,
      "byteOffset": 1116504,
      "componentType": 5125,
      "count": 19344,
      "type": "SCALAR"
    }
  ],
  "asset": {
    "extras": {
      "author": "Punktasky (https://sketchfab.com/Punktasky)",
      "license": "CC-BY-4.0 (http://creativecommons.org/licenses/by/4.0/)",
      "source": "https://sketchfab.com/3d-models/nike-air-max-skor-91e4b7e1bb8d4983a1120c6a0935ca99",
      "title": "Nike Air Max Skór"
    },
    "generator": "Sketchfab-13.28.0",
    "version": "2.0"
  },
  "bufferViews": [
    {
      "buffer": 0,
      "byteLength": 1193880,
      "name": "floatBufferViews",
      "target": 34963
    },
    {
      "buffer": 0,
      "byteLength": 582080,
      "byteOffset": 1193880,
      "byteStride": 8,
      "name": "floatBufferViews",
      "target": 34962
    },
    {
      "buffer": 0,
      "byteLength": 1746240,
      "byteOffset": 1775960,
      "byteStride": 12,
      "name": "floatBufferViews",
      "target": 34962
    }
  ],
  "buffers": [
    {
      "byteLength": 3522200,
      "uri": "scene.bin"
    }
  ],
  "extensionsRequired": [
    "KHR_materials_pbrSpecularGlossiness"
  ],
  "extensionsUsed": [
    "KHR_materials_pbrSpecularGlossiness"
  ],
  "images": [
    {
      "uri": "textures/NikeAirMaxSkor_100k_tex_fix_u1_v1_diffuse.png"
    }
  ],
  "materials": [
    {
      "doubleSided": true,
      "extensions": {
        "KHR_materials_pbrSpecularGlossiness": {
          "diffuseFactor": [
            1.0,
            1.0,
            1.0,
            1.0
          ],
          "diffuseTexture": {
            "index": 0
          },
          "glossinessFactor": 0.0,
          "specularFactor": [
            0.0,
            0.0,
            0.0
          ]
        }
      },
      "name": "NikeAirMaxSkor_100k_tex_fix_u1_v1"
    }
  ],
  "meshes": [
    {
      "name": "Object_0",
      "primitives": [
        {
          "attributes": {
            "NORMAL": 1,
            "POSITION": 0,
            "TEXCOORD_0": 2
          },
          "indices": 3,
          "material": 0,
          "mode": 4
        }
      ]
    },
    {
      "name": "Object_1",
      "primitives": [
        {
          "attributes": {
            "NORMAL": 5,
            "POSITION": 4,
            "TEXCOORD_0": 6
          },
          "indices": 7,
          "material": 0,
          "mode": 4
        }
      ]
    }
  ],
  "nodes": [
    {
      "children": [
        1
      ],
      "matrix": [
        0.008333333767950535,
        0.0,
        0.0,
        0.0,
        0.0,
        -0.008333333767950535,
        -3.700743608425998e-18,
        0.0,
        0.0,
        3.700743608425998e-18,
        -0.008333333767950535,
        0.0,
        0.0,
        0.0,
        0.0,
        1.0
      ],
      "name": "Sketchfab_model"
    },
    {
      "children": [
        2,
        3
      ],
      "name": "NikeAirMaxSkor_100k_tex_fix.obj.cleaner.materialmerger.gles"
    },
    {
      "mesh": 0,
      "name": "Object_2"
    },
    {
      "mesh": 1,
      "name": "Object_3"
    }
  ],
  "samplers": [
    {
      "magFilter": 9729,
      "minFilter": 9987,
      "wrapS": 10497,
      "wrapT": 10497
    }
  ],
  "scene": 0,
  "scenes": [
    {
      "name": "Sketchfab_Scene",
      "nodes": [
        0
      ]
    }
  ],
  "textures": [
    {
      "sampler": 0,
      "source": 0
    }
  ]
}
