{
  "accessors": [
    {
      "bufferView": 2,
      "componentType": 5126,
      "count": 65532,
      "max": [
        2.6258368492126465,
        3.3172478675842285,
        3.188366174697876
      ],
      "min": [
        -0.14498019218444824,
        -0.39156508445739746,
        -4.59169864654541
      ],
      "type": "VEC3"
    },
    {
      "bufferView": 2,
      "byteOffset": 786384,
      "componentType": 5126,
      "count": 65532,
      "max": [
        0.9999916553497314,
        0.9999992251396179,
        1.0
      ],
      "min": [
        -0.9999957084655762,
        -1.0,
        -0.9999938607215881
      ],
      "type": "VEC3"
    },
    {
      "bufferView": 3,
      "componentType": 5126,
      "count": 65532,
      "max": [
        0.9999865889549255,
        0.9999998211860657,
        0.9999704360961914,
        1.0
      ],
      "min": [
        -0.9999993443489075,
        -0.999998152256012,
        -0.9999960660934448,
        -1.0
      ],
      "type": "VEC4"
    },
    {
      "bufferView": 1,
      "componentType": 5126,
      "count": 65532,
      "max": [
        0.9980400204658508,
        0.9980499744415283
      ],
      "min": [
        0.0019499999471008778,
        0.006519973278045654
      ],
      "type": "VEC2"
    },
    {
      "bufferView": 1,
      "byteOffset": 524256,
      "componentType": 5126,
      "count": 65532,
      "max": [
        0.9980400204658508,
        0.9980499744415283
      ],
      "min": [
        0.0019499999471008778,
        0.006519973278045654
      ],
      "type": "VEC2"
    },
    {
      "bufferView": 1,
      "byteOffset": 1048512,
      "componentType": 5126,
      "count": 65532,
      "max": [
        0.9980400204658508,
        0.9980499744415283
      ],
      "min": [
        0.0019499999471008778,
        0.006519973278045654
      ],
      "type": "VEC2"
    },
    {
      "bufferView": 1,
      "byteOffset": 1572768,
      "componentType": 5126,
      "count": 65532,
      "max": [
        0.9980400204658508,
        0.9980499744415283
      ],
      "min": [
        0.0019499999471008778,
        0.006519973278045654
      ],
      "type": "VEC2"
    },
    {
      "bufferView": 1,
      "byteOffset": 2097024,
      "componentType": 5126,
      "count": 65532,
      "max": [
        0.9980400204658508,
        0.9980499744415283
      ],
      "min": [
        0.0019499999471008778,
        0.006519973278045654
      ],
      "type": "VEC2"
    },
    {
      "bufferView": 0,
      "componentType": 5125,
      "count": 341157,
      "type": "SCALAR"
    },
    {
      "bufferView": 2,
      "byteOffset": 1572768,
      "componentType": 5126,
      "count": 21370,
      "max": [
        2.583991527557373,
        2.9472341537475586,
        3.1283462047576904
      ],
      "min": [
        -0.09210443496704102,
        -0.266943097114563,
        -4.545738220214844
      ],
      "type": "VEC3"
    },
    {
      "bufferView": 2,
      "byteOffset": 1829208,
      "componentType": 5126,
      "count": 21370,
      "max": [
        0.9999915361404419,
        0.9999656081199646,
        0.9998989105224609
      ],
      "min": [
        -0.9999733567237854,
        -0.9999951720237732,
        -0.9999575614929199
      ],
      "type": "VEC3"
    },
    {
      "bufferView": 3,
      "byteOffset": 1048512,
      "componentType": 5126,
      "count": 21370,
      "max": [
        0.9999901652336121,
        0.9999889731407166,
        0.9999099969863892,
        1.0
      ],
      "min": [
        -0.9999708533287048,
        -0.9998381733894348,
        -0.9999912977218628,
        -1.0
      ],
      "type": "VEC4"
    },
    {
      "bufferView": 1,
      "byteOffset": 2621280,
      "componentType": 5126,
      "count": 21370,
      "max": [
        0.9771199822425842,
        0.9978299736976624
      ],
      "min": [
        0.001990000018849969,
        0.006389975547790527
      ],
      "type": "VEC2"
    },
    {
      "bufferView": 1,
      "byteOffset": 2792240,
      "componentType": 5126,
      "count": 21370,
      "max": [
        0.9771199822425842,
        0.9978299736976624
      ],
      "min": [
        0.001990000018849969,
        0.006389975547790527
      ],
      "type": "VEC2"
    },
    {
      "bufferView": 1,
      "byteOffset": 2963200,
      "componentType": 5126,
      "count": 21370,
      "max": [
        0.9771199822425842,
        0.9978299736976624
      ],
      "min": [
        0.001990000018849969,
        0.006389975547790527
      ],
      "type": "VEC2"
    },
    {
      "bufferView": 1,
      "byteOffset": 3134160,
      "componentType": 5126,
      "count": 21370,
      "max": [
        0.9771199822425842,
        0.9978299736976624
      ],
      "min": [
        0.001990000018849969,
        0.006389975547790527
      ],
      "type": "VEC2"
    },
    {
      "bufferView": 1,
      "byteOffset": 3305120,
      "componentType": 5126,
      "count": 21370,
      "max": [
        0.9771199822425842,
        0.9978299736976624
      ],
      "min": [
        0.001990000018849969,
        0.006389975547790527
      ],
      "type": "VEC2"
    },
    {
      "bufferView": 0,
      "byteOffset": 1364628,
      "componentType": 5125,
      "count": 100455,
      "type": "SCALAR"
    }
  ],
  "asset": {
    "extras": {
      "author": "uv15o6 (https://sketchfab.com/uv15o6)",
      "license": "CC-BY-NC-4.0 (http://creativecommons.org/licenses/by-nc/4.0/)",
      "source": "https://sketchfab.com/3d-models/nike-shoe-73501460b48b4e579d18cfab23c0f605",
      "title": "Nike Shoe"
    },
    "generator": "Sketchfab-15.31.0",
    "version": "2.0"
  },
  "bufferViews": [
    {
      "buffer": 0,
      "byteLength": 1766448,
      "name": "floatBufferViews",
      "target": 34963
    },
    {
      "buffer": 0,
      "byteLength": 3476080,
      "byteOffset": 1766448,
      "byteStride": 8,
      "name": "floatBufferViews",
      "target": 34962
    },
    {
      "buffer": 0,
      "byteLength": 2085648,
      "byteOffset": 5242528,
      "byteStride": 12,
      "name": "floatBufferViews",
      "target": 34962
    },
    {
      "buffer": 0,
      "byteLength": 1390432,
      "byteOffset": 7328176,
      "byteStride": 16,
      "name": "floatBufferViews",
      "target": 34962
    }
  ],
  "buffers": [
    {
      "byteLength": 8718608,
      "uri": "scene.bin"
    }
  ],
  "images": [
    {
      "uri": "textures/defaultMat_baseColor.png"
    },
    {
      "uri": "textures/defaultMat_metallicRoughness.png"
    },
    {
      "uri": "textures/defaultMat_normal.png"
    }
  ],
  "materials": [
    {
      "name": "defaultMat",
      "normalTexture": {
        "index": 2,
        "texCoord": 2
      },
      "occlusionTexture": {
        "index": 1,
        "texCoord": 3
      },
      "pbrMetallicRoughness": {
        "baseColorTexture": {
          "index": 0
        },
        "metallicRoughnessTexture": {
          "index": 1,
          "texCoord": 1
        }
      }
    }
  ],
  "meshes": [
    {
      "name": "Object_0",
      "primitives": [
        {
          "attributes": {
            "NORMAL": 1,
            "POSITION": 0,
            "TANGENT": 2,
            "TEXCOORD_0": 3,
            "TEXCOORD_1": 4,
            "TEXCOORD_2": 5,
            "TEXCOORD_3": 6,
            "TEXCOORD_4": 7
          },
          "indices": 8,
          "material": 0,
          "mode": 4
        }
      ]
    },
    {
      "name": "Object_1",
      "primitives": [
        {
          "attributes": {
            "NORMAL": 10,
            "POSITION": 9,
            "TANGENT": 11,
            "TEXCOORD_0": 12,
            "TEXCOORD_1": 13,
            "TEXCOORD_2": 14,
            "TEXCOORD_3": 15,
            "TEXCOORD_4": 16
          },
          "indices": 17,
          "material": 0,
          "mode": 4
        }
      ]
    }
  ],
  "nodes": [
    {
      "children": [
        1
      ],
      "matrix": [
        1.0,
        0.0,
        0.0,
        0.0,
        0.0,
        2.220446049250313e-16,
        -1.0,
        0.0,
        0.0,
        1.0,
        2.220446049250313e-16,
        0.0,
        0.0,
        0.0,
        0.0,
        1.0
      ],
      "name": "Sketchfab_model"
    },
    {
      "children": [
        2
      ],
      "name": "root"
    },
    {
      "children": [
        3
      ],
      "matrix": [
        1.0,
        0.0,
        0.0,
        0.0,
        0.0,
        2.220446049250313e-16,
        1.0,
        0.0,
        0.0,
        -1.0,
        2.220446049250313e-16,
        0.0,
        0.0,
        0.0,
        0.0,
        1.0
      ],
      "name": "GLTF_SceneRootNode"
    },
    {
      "children": [
        4
      ],
      "name": "shoe%20personal%20low%20poly.obj_0"
    },
    {
      "children": [
        5
      ],
      "name": "Group38736_1"
    },
    {
      "children": [
        6,
        7
      ],
      "name": "Group38736_2"
    },
    {
      "mesh": 0,
      "name": "Object_6"
    },
    {
      "mesh": 1,
      "name": "Object_7"
    }
  ],
  "samplers": [
    {
      "magFilter": 9729,
      "minFilter": 9987,
      "wrapS": 10497,
      "wrapT": 10497
    }
  ],
  "scene": 0,
  "scenes": [
    {
      "name": "Sketchfab_Scene",
      "nodes": [
        0
      ]
    }
  ],
  "textures": [
    {
      "sampler": 0,
      "source": 0
    },
    {
      "sampler": 0,
      "source": 1
    },
    {
      "sampler": 0,
      "source": 2
    }
  ]
}
